<?xml version="1.0" encoding="UTF-8" standalone="no"?>
<!-- Created with Inkscape (http://www.inkscape.org/) -->

<svg
   xmlns:dc="http://purl.org/dc/elements/1.1/"
   xmlns:cc="http://creativecommons.org/ns#"
   xmlns:rdf="http://www.w3.org/1999/02/22-rdf-syntax-ns#"
   xmlns:svg="http://www.w3.org/2000/svg"
   xmlns="http://www.w3.org/2000/svg"
   xmlns:sodipodi="http://sodipodi.sourceforge.net/DTD/sodipodi-0.dtd"
   xmlns:inkscape="http://www.inkscape.org/namespaces/inkscape"
   version="1.1"
   width="466.82849"
   height="429.63147"
   id="svg2"
   inkscape:version="0.48.4 r9939"
   sodipodi:docname="k33.svg">
  <sodipodi:namedview
     pagecolor="#ffffff"
     bordercolor="#666666"
     borderopacity="1"
     objecttolerance="10"
     gridtolerance="10"
     guidetolerance="10"
     inkscape:pageopacity="0"
     inkscape:pageshadow="2"
     inkscape:window-width="1570"
     inkscape:window-height="1168"
     id="namedview3364"
     showgrid="false"
     inkscape:zoom="2.197232"
     inkscape:cx="136.21704"
     inkscape:cy="131.89405"
     inkscape:window-x="469"
     inkscape:window-y="195"
     inkscape:window-maximized="0"
     inkscape:current-layer="svg2" />
  <defs
     id="defs4" />
  <metadata
     id="metadata7">
    <rdf:RDF>
      <cc:Work
         rdf:about="">
        <dc:format>image/svg+xml</dc:format>
        <dc:type
           rdf:resource="http://purl.org/dc/dcmitype/StillImage" />
        <dc:title></dc:title>
      </cc:Work>
    </rdf:RDF>
  </metadata>
  <path
     style="fill:none;stroke:#000000;stroke-width:1px;stroke-linecap:butt;stroke-linejoin:miter;stroke-opacity:1"
     d="m 130.16377,78.280315 203.8929,0"
     id="path4028"
     inkscape:connector-curvature="0" />
  <path
     inkscape:connector-curvature="0"
     id="path4030"
     d="m 130.16377,78.280315 203.8929,0"
     style="fill:none;stroke:#000000;stroke-width:1px;stroke-linecap:butt;stroke-linejoin:miter;stroke-opacity:1" />
  <path
     style="fill:none;stroke:#000000;stroke-width:1px;stroke-linecap:butt;stroke-linejoin:miter;stroke-opacity:1"
     d="m 130.16377,351.17038 203.8929,0"
     id="path4032"
     inkscape:connector-curvature="0" />
  <path
     inkscape:connector-curvature="0"
     id="path4034"
     d="m 130.16377,214.81572 203.8929,0"
     style="fill:none;stroke:#000000;stroke-width:1px;stroke-linecap:butt;stroke-linejoin:miter;stroke-opacity:1" />
  <path
     style="fill:none;stroke:#000000;stroke-width:1px;stroke-linecap:butt;stroke-linejoin:miter;stroke-opacity:1"
     d="M 128.79842,75.549607 337.24249,214.81574"
     id="path4036"
     inkscape:connector-curvature="0" />
  <path
     style="fill:none;stroke:#000000;stroke-width:1px;stroke-linecap:butt;stroke-linejoin:miter;stroke-opacity:1"
     d="M 129.25353,78.735433 336.78738,350.44092"
     id="path4038"
     inkscape:connector-curvature="0" />
  <path
     style="fill:none;stroke:#000000;stroke-width:1px;stroke-linecap:butt;stroke-linejoin:miter;stroke-opacity:1"
     d="M 337.69761,76.004725 129.70865,214.81574 337.24249,351.35116"
     id="path4040"
     inkscape:connector-curvature="0" />
  <path
     style="fill:none;stroke:#000000;stroke-width:1px;stroke-linecap:butt;stroke-linejoin:miter;stroke-opacity:1"
     d="M 128.79842,350.89604 334.05667,214.81574"
     id="path4042"
     inkscape:connector-curvature="0" />
  <path
     style="fill:none;stroke:#000000;stroke-width:1px;stroke-linecap:butt;stroke-linejoin:miter;stroke-opacity:1"
     d="M 128.3433,353.17163 336.78738,77.370079"
     id="path4044"
     inkscape:connector-curvature="0" />
  <path
     transform="matrix(2.8561552,0,0,2.8561552,501.44289,-262.24426)"
     style="fill:#4682b4;fill-opacity:1;stroke:#000000;stroke-width:0.35012102;stroke-miterlimit:4;stroke-opacity:0.49803922;stroke-dasharray:none"
     d="m -124.86503,167.02873 a 5.1490736,5.1490736 0 1 1 -10.29814,0 5.1490736,5.1490736 0 1 1 10.29814,0 z"
     sodipodi:ry="5.1490736"
     sodipodi:rx="5.1490736"
     sodipodi:cy="167.02873"
     sodipodi:cx="-130.0141"
     id="path3898"
     sodipodi:type="arc" />
  <path
     sodipodi:type="arc"
     id="path3900"
     sodipodi:cx="-130.0141"
     sodipodi:cy="167.02873"
     sodipodi:rx="5.1490736"
     sodipodi:ry="5.1490736"
     d="m -124.86503,167.02873 a 5.1490736,5.1490736 0 1 1 -10.29814,0 5.1490736,5.1490736 0 1 1 10.29814,0 z"
     style="fill:#4682b4;fill-opacity:1;stroke:#000000;stroke-width:0.35012102;stroke-miterlimit:4;stroke-opacity:0.49803922;stroke-dasharray:none"
     transform="matrix(2.8561552,0,0,2.8561552,501.44289,-125.8896)" />
  <path
     sodipodi:type="arc"
     id="path3128"
     sodipodi:cx="-130.0141"
     sodipodi:cy="167.02873"
     sodipodi:rx="5.1490736"
     sodipodi:ry="5.1490736"
     d="m -124.86503,167.02873 a 5.1490736,5.1490736 0 1 1 -10.29814,0 5.1490736,5.1490736 0 1 1 10.29814,0 z"
     style="fill:#4682b4;fill-opacity:1;stroke:#000000;stroke-width:0.35012102;stroke-miterlimit:4;stroke-opacity:0.49803922;stroke-dasharray:none"
     transform="matrix(2.8561552,0,0,2.8561552,501.44289,-398.5989)" />
  <path
     sodipodi:type="arc"
     id="path4022"
     sodipodi:cx="-130.0141"
     sodipodi:cy="167.02873"
     sodipodi:rx="5.1490736"
     sodipodi:ry="5.1490736"
     d="m -124.86503,167.02873 a 5.1490736,5.1490736 0 1 1 -10.29814,0 5.1490736,5.1490736 0 1 1 10.29814,0 z"
     style="fill:#4682b4;fill-opacity:1;stroke:#000000;stroke-width:0.35012102;stroke-miterlimit:4;stroke-opacity:0.49803922;stroke-dasharray:none"
     transform="matrix(2.8561552,0,0,2.8561552,708.0665,-262.24426)" />
  <path
     transform="matrix(2.8561552,0,0,2.8561552,708.0665,-125.8896)"
     style="fill:#4682b4;fill-opacity:1;stroke:#000000;stroke-width:0.35012102;stroke-miterlimit:4;stroke-opacity:0.49803922;stroke-dasharray:none"
     d="m -124.86503,167.02873 a 5.1490736,5.1490736 0 1 1 -10.29814,0 5.1490736,5.1490736 0 1 1 10.29814,0 z"
     sodipodi:ry="5.1490736"
     sodipodi:rx="5.1490736"
     sodipodi:cy="167.02873"
     sodipodi:cx="-130.0141"
     id="path4024"
     sodipodi:type="arc" />
  <path
     transform="matrix(2.8561552,0,0,2.8561552,708.0665,-398.5989)"
     style="fill:#4682b4;fill-opacity:1;stroke:#000000;stroke-width:0.35012102;stroke-miterlimit:4;stroke-opacity:0.49803922;stroke-dasharray:none"
     d="m -124.86503,167.02873 a 5.1490736,5.1490736 0 1 1 -10.29814,0 5.1490736,5.1490736 0 1 1 10.29814,0 z"
     sodipodi:ry="5.1490736"
     sodipodi:rx="5.1490736"
     sodipodi:cy="167.02873"
     sodipodi:cx="-130.0141"
     id="path4026"
     sodipodi:type="arc" />
</svg>
