<?xml version="1.0" encoding="UTF-8" standalone="no"?>
<!-- Created with Inkscape (http://www.inkscape.org/) -->

<svg
   xmlns:dc="http://purl.org/dc/elements/1.1/"
   xmlns:cc="http://creativecommons.org/ns#"
   xmlns:rdf="http://www.w3.org/1999/02/22-rdf-syntax-ns#"
   xmlns:svg="http://www.w3.org/2000/svg"
   xmlns="http://www.w3.org/2000/svg"
   xmlns:sodipodi="http://sodipodi.sourceforge.net/DTD/sodipodi-0.dtd"
   xmlns:inkscape="http://www.inkscape.org/namespaces/inkscape"
   version="1.1"
   width="466.82849"
   height="429.63147"
   id="svg2"
   inkscape:version="0.48.4 r9939"
   sodipodi:docname="k5.svg">
  <sodipodi:namedview
     pagecolor="#ffffff"
     bordercolor="#666666"
     borderopacity="1"
     objecttolerance="10"
     gridtolerance="10"
     guidetolerance="10"
     inkscape:pageopacity="0"
     inkscape:pageshadow="2"
     inkscape:window-width="1570"
     inkscape:window-height="1168"
     id="namedview3364"
     showgrid="false"
     inkscape:zoom="1.098616"
     inkscape:cx="141.60391"
     inkscape:cy="311.75589"
     inkscape:window-x="469"
     inkscape:window-y="195"
     inkscape:window-maximized="0"
     inkscape:current-layer="svg2" />
  <defs
     id="defs4" />
  <metadata
     id="metadata7">
    <rdf:RDF>
      <cc:Work
         rdf:about="">
        <dc:format>image/svg+xml</dc:format>
        <dc:type
           rdf:resource="http://purl.org/dc/dcmitype/StillImage" />
        <dc:title />
      </cc:Work>
    </rdf:RDF>
  </metadata>
  <path
     style="fill:none;stroke:#000000;stroke-width:1px;stroke-linecap:butt;stroke-linejoin:miter;stroke-opacity:1"
     d="M 239.84724,59.518113 401.86927,179.66929"
     id="path3985"
     inkscape:connector-curvature="0" />
  <path
     style="fill:none;stroke:#000000;stroke-width:1px;stroke-linecap:butt;stroke-linejoin:miter;stroke-opacity:1"
     d="M 239.84724,59.518113 340.88345,370.81888 129.70867,368.08817"
     id="path3989"
     inkscape:connector-curvature="0" />
  <path
     style="fill:none;stroke:#000000;stroke-width:1px;stroke-linecap:butt;stroke-linejoin:miter;stroke-opacity:1"
     d="M 132.43937,368.99841 65.99213,178.75905 239.84724,63.159058"
     id="path3991"
     inkscape:connector-curvature="0" />
  <path
     style="fill:none;stroke:#000000;stroke-width:1px;stroke-linecap:butt;stroke-linejoin:miter;stroke-opacity:1"
     d="M 70.543311,177.84881 400.0488,181.48976"
     id="path3993"
     inkscape:connector-curvature="0" />
  <path
     style="fill:none;stroke:#000000;stroke-width:1px;stroke-linecap:butt;stroke-linejoin:miter;stroke-opacity:1"
     d="M 64.171658,182.4 338.15274,369.90864"
     id="path3995"
     inkscape:connector-curvature="0" />
  <path
     style="fill:none;stroke:#000000;stroke-width:1px;stroke-linecap:butt;stroke-linejoin:miter;stroke-opacity:1"
     d="M 131.52914,366.2677 401.86927,186.04094"
     id="path3997"
     inkscape:connector-curvature="0" />
  <path
     style="fill:none;stroke:#000000;stroke-width:1px;stroke-linecap:butt;stroke-linejoin:miter;stroke-opacity:1"
     d="M 131.52914,369.90864 237.11653,60.428349"
     id="path4001"
     inkscape:connector-curvature="0" />
  <path
     transform="matrix(2.8561552,0,0,2.8561552,439.26588,-296.82693)"
     style="fill:#4682b4;fill-opacity:1;stroke:#000000;stroke-width:0.35012102;stroke-miterlimit:4;stroke-opacity:0.49803922;stroke-dasharray:none"
     d="m -124.86503,167.02873 a 5.1490736,5.1490736 0 1 1 -10.29814,0 5.1490736,5.1490736 0 1 1 10.29814,0 z"
     sodipodi:ry="5.1490736"
     sodipodi:rx="5.1490736"
     sodipodi:cy="167.02873"
     sodipodi:cx="-130.0141"
     id="path3898"
     sodipodi:type="arc" />
  <path
     sodipodi:type="arc"
     id="path3900"
     sodipodi:cx="-130.0141"
     sodipodi:cy="167.02873"
     sodipodi:rx="5.1490736"
     sodipodi:ry="5.1490736"
     d="m -124.86503,167.02873 a 5.1490736,5.1490736 0 1 1 -10.29814,0 5.1490736,5.1490736 0 1 1 10.29814,0 z"
     style="fill:#4682b4;fill-opacity:1;stroke:#000000;stroke-width:0.35012102;stroke-miterlimit:4;stroke-opacity:0.49803922;stroke-dasharray:none"
     transform="matrix(2.8561552,0,0,2.8561552,501.46644,-108.13999)" />
  <path
     transform="matrix(2.8561552,0,0,2.8561552,711.57348,-108.13999)"
     style="fill:#4682b4;fill-opacity:1;stroke:#000000;stroke-width:0.35012102;stroke-miterlimit:4;stroke-opacity:0.49803922;stroke-dasharray:none"
     d="m -124.86503,167.02873 a 5.1490736,5.1490736 0 1 1 -10.29814,0 5.1490736,5.1490736 0 1 1 10.29814,0 z"
     sodipodi:ry="5.1490736"
     sodipodi:rx="5.1490736"
     sodipodi:cy="167.02873"
     sodipodi:cx="-130.0141"
     id="path3902"
     sodipodi:type="arc" />
  <path
     style="fill:none;stroke:#000000;stroke-width:1px;stroke-linecap:butt;stroke-linejoin:miter;stroke-opacity:1"
     d="m 401.86927,181.48976 -55.5244,188.41888"
     id="path3999"
     inkscape:connector-curvature="0" />
  <path
     sodipodi:type="arc"
     id="path3128"
     sodipodi:cx="-130.0141"
     sodipodi:cy="167.02873"
     sodipodi:rx="5.1490736"
     sodipodi:ry="5.1490736"
     d="m -124.86503,167.02873 a 5.1490736,5.1490736 0 1 1 -10.29814,0 5.1490736,5.1490736 0 1 1 10.29814,0 z"
     style="fill:#4682b4;fill-opacity:1;stroke:#000000;stroke-width:0.35012102;stroke-miterlimit:4;stroke-opacity:0.49803922;stroke-dasharray:none"
     transform="matrix(2.8561552,0,0,2.8561552,613.0896,-416.3485)" />
  <path
     sodipodi:type="arc"
     id="path3904"
     sodipodi:cx="-130.0141"
     sodipodi:cy="167.02873"
     sodipodi:rx="5.1490736"
     sodipodi:ry="5.1490736"
     d="m -124.86503,167.02873 a 5.1490736,5.1490736 0 1 1 -10.29814,0 5.1490736,5.1490736 0 1 1 10.29814,0 z"
     style="fill:#4682b4;fill-opacity:1;stroke:#000000;stroke-width:0.35012102;stroke-miterlimit:4;stroke-opacity:0.49803922;stroke-dasharray:none"
     transform="matrix(2.8561552,0,0,2.8561552,770.24351,-296.82693)" />
</svg>
