<?xml version="1.0" encoding="UTF-8" standalone="no"?>
<!-- Created with Inkscape (http://www.inkscape.org/) -->

<svg
   xmlns:dc="http://purl.org/dc/elements/1.1/"
   xmlns:cc="http://creativecommons.org/ns#"
   xmlns:rdf="http://www.w3.org/1999/02/22-rdf-syntax-ns#"
   xmlns:svg="http://www.w3.org/2000/svg"
   xmlns="http://www.w3.org/2000/svg"
   xmlns:sodipodi="http://sodipodi.sourceforge.net/DTD/sodipodi-0.dtd"
   xmlns:inkscape="http://www.inkscape.org/namespaces/inkscape"
   version="1.1"
   width="466.82849"
   height="429.63147"
   id="svg2"
   inkscape:version="0.48.4 r9939"
   sodipodi:docname="k5.svg">
  <sodipodi:namedview
     pagecolor="#ffffff"
     bordercolor="#666666"
     borderopacity="1"
     objecttolerance="10"
     gridtolerance="10"
     guidetolerance="10"
     inkscape:pageopacity="0"
     inkscape:pageshadow="2"
     inkscape:window-width="1570"
     inkscape:window-height="1168"
     id="namedview3364"
     showgrid="false"
     inkscape:zoom="1.098616"
     inkscape:cx="22.972815"
     inkscape:cy="249.53962"
     inkscape:window-x="469"
     inkscape:window-y="195"
     inkscape:window-maximized="0"
     inkscape:current-layer="svg2" />
  <defs
     id="defs4" />
  <metadata
     id="metadata7">
    <rdf:RDF>
      <cc:Work
         rdf:about="">
        <dc:format>image/svg+xml</dc:format>
        <dc:type
           rdf:resource="http://purl.org/dc/dcmitype/StillImage" />
        <dc:title></dc:title>
      </cc:Work>
    </rdf:RDF>
  </metadata>
  <path
     style="fill:none;stroke:#000000;stroke-width:1px;stroke-linecap:butt;stroke-linejoin:miter;stroke-opacity:1"
     d="M 333.4025,203.07224 240.71918,97.516236 316.66801,320.21366"
     id="path3916"
     inkscape:connector-curvature="0" />
  <path
     style="fill:none;stroke:#000000;stroke-width:1px;stroke-linecap:butt;stroke-linejoin:miter;stroke-opacity:1"
     d="M 238.14464,100.09077 155.75947,315.06459"
     id="path3918"
     inkscape:connector-curvature="0" />
  <path
     style="fill:none;stroke:#000000;stroke-width:1px;stroke-linecap:butt;stroke-linejoin:miter;stroke-opacity:1"
     d="M 239.43191,92.367162 139.02498,195.34863 149.32313,308.62824"
     id="path3920"
     inkscape:connector-curvature="0" />
  <path
     style="fill:none;stroke:#000000;stroke-width:1px;stroke-linecap:butt;stroke-linejoin:miter;stroke-opacity:1"
     d="m 133.87591,200.4977 c 0,0 -63.272337,104.98057 -23.76873,143.08086 52.09382,50.24325 207.8481,-25.93944 207.8481,-25.93944 l 0,-1.28726 0,0"
     id="path3922"
     inkscape:connector-curvature="0"
     sodipodi:nodetypes="csccc" />
  <path
     style="fill:none;stroke:#000000;stroke-width:1px;stroke-linecap:butt;stroke-linejoin:miter;stroke-opacity:1"
     d="m 157.04674,320.21366 154.4722,-1.28727 0,0 0,0"
     id="path3926"
     inkscape:connector-curvature="0" />
  <path
     style="fill:none;stroke:#000000;stroke-width:1px;stroke-linecap:butt;stroke-linejoin:miter;stroke-opacity:1"
     d="m 332.11523,204.35951 -18.02175,110.70508 0,0"
     id="path3928"
     inkscape:connector-curvature="0" />
  <g
     id="g3906"
     transform="translate(5.1490709,33.038032)">
    <path
       transform="matrix(2.8561552,0,0,2.8561552,520.43861,-194.32448)"
       style="fill:#4682b4;fill-opacity:1;stroke:#000000;stroke-width:0.35012102;stroke-miterlimit:4;stroke-opacity:0.49803922;stroke-dasharray:none"
       d="m -124.86503,167.02873 c 0,2.84376 -2.30531,5.14908 -5.14907,5.14908 -2.84375,0 -5.14907,-2.30532 -5.14907,-5.14908 0,-2.84375 2.30532,-5.14907 5.14907,-5.14907 2.84376,0 5.14907,2.30532 5.14907,5.14907 z"
       sodipodi:ry="5.1490736"
       sodipodi:rx="5.1490736"
       sodipodi:cy="167.02873"
       sodipodi:cx="-130.0141"
       id="path3900"
       sodipodi:type="arc" />
    <path
       sodipodi:type="arc"
       id="path3902"
       sodipodi:cx="-130.0141"
       sodipodi:cy="167.02873"
       sodipodi:rx="5.1490736"
       sodipodi:ry="5.1490736"
       d="m -124.86503,167.02873 c 0,2.84376 -2.30531,5.14908 -5.14907,5.14908 -2.84375,0 -5.14907,-2.30532 -5.14907,-5.14908 0,-2.84375 2.30532,-5.14907 5.14907,-5.14907 2.84376,0 5.14907,2.30532 5.14907,5.14907 z"
       style="fill:#4682b4;fill-opacity:1;stroke:#000000;stroke-width:0.35012102;stroke-miterlimit:4;stroke-opacity:0.49803922;stroke-dasharray:none"
       transform="matrix(2.8561552,0,0,2.8561552,676.84172,-194.32448)" />
  </g>
  <path
     sodipodi:type="arc"
     id="path3128"
     sodipodi:cx="-130.0141"
     sodipodi:cy="167.02873"
     sodipodi:rx="5.1490736"
     sodipodi:ry="5.1490736"
     d="m -124.86503,167.02873 a 5.1490736,5.1490736 0 1 1 -10.29814,0 5.1490736,5.1490736 0 1 1 10.29814,0 z"
     style="fill:#4682b4;fill-opacity:1;stroke:#000000;stroke-width:0.35012102;stroke-miterlimit:4;stroke-opacity:0.49803922;stroke-dasharray:none"
     transform="matrix(2.8561552,0,0,2.8561552,609.90376,-381.20205)" />
  <path
     style="fill:none;stroke:#000000;stroke-width:1px;stroke-linecap:butt;stroke-linejoin:miter;stroke-opacity:1"
     d="m 133.80472,196.61101 c 0,0 33.57378,-166.91519 98.30551,-167.483459 65.77143,-0.577396 102.85668,168.393689 102.85668,168.393689 l -1.82047,-2.7307"
     id="path3932"
     inkscape:connector-curvature="0"
     sodipodi:nodetypes="cscc" />
  <g
     id="g3910"
     transform="translate(5.1490709,41.352532)">
    <path
       transform="matrix(2.8561552,0,0,2.8561552,700.01255,-317.59679)"
       style="fill:#4682b4;fill-opacity:1;stroke:#000000;stroke-width:0.35012102;stroke-miterlimit:4;stroke-opacity:0.49803922;stroke-dasharray:none"
       d="m -124.86503,167.02873 c 0,2.84376 -2.30531,5.14908 -5.14907,5.14908 -2.84375,0 -5.14907,-2.30532 -5.14907,-5.14908 0,-2.84375 2.30532,-5.14907 5.14907,-5.14907 2.84376,0 5.14907,2.30532 5.14907,5.14907 z"
       sodipodi:ry="5.1490736"
       sodipodi:rx="5.1490736"
       sodipodi:cy="167.02873"
       sodipodi:cx="-130.0141"
       id="path3904"
       sodipodi:type="arc" />
    <path
       sodipodi:type="arc"
       id="path3898"
       sodipodi:cx="-130.0141"
       sodipodi:cy="167.02873"
       sodipodi:rx="5.1490736"
       sodipodi:ry="5.1490736"
       d="m -124.86503,167.02873 c 0,2.84376 -2.30531,5.14908 -5.14907,5.14908 -2.84375,0 -5.14907,-2.30532 -5.14907,-5.14908 0,-2.84375 2.30532,-5.14907 5.14907,-5.14907 2.84376,0 5.14907,2.30532 5.14907,5.14907 z"
       style="fill:#4682b4;fill-opacity:1;stroke:#000000;stroke-width:0.35012102;stroke-miterlimit:4;stroke-opacity:0.49803922;stroke-dasharray:none"
       transform="matrix(2.8561552,0,0,2.8561552,499.19869,-317.59679)" />
  </g>
</svg>
